# xmcd
#
# Track frame offsets: 
#        150
#        11056
#        28269
#        37450
#        49739
#        63822
#        76431
#        90607
#        99845
#        110771
#        124470
#        136463
#        143789
#        159083
#        167279
#
# Disc length: 2363 seconds
#
# Revision: 2
# Processed by: cddbd v1.5.2PL0 Copyright (c) Steve Scherf et al.
# Submitted via: ExactAudioCopy v1.0b4
#
DISCID=c709390f
DTITLE=Blind John Davis - The Blues Jumped The Rabbit
DYEAR=1900
DGENRE=Blues
TTITLE0=My Own Boogie
TTITLE1=Everyday I Have The Blues
TTITLE2=Texas Tony
TTITLE3=Trouble In Mind
TTITLE4=If I Had A Listen
TTITLE5=St Louis Blues
TTITLE6=After Hours
TTITLE7=How Long Blues
TTITLE8=Everybody's Boogie
TTITLE9=Memphis Blues
TTITLE10=Rockin Chair Boogie
TTITLE11=The House Of Blues Lights
TTITLE12=C.C. Rider
TTITLE13=Run Away Boogie
TTITLE14=Pinetop Boogie
EXTD=
EXTT0=
EXTT1=
EXTT2=
EXTT3=
EXTT4=
EXTT5=
EXTT6=
EXTT7=
EXTT8=
EXTT9=
EXTT10=
EXTT11=
EXTT12=
EXTT13=
EXTT14=
PLAYORDER=
